<?xml version="1.0" encoding="UTF-8" standalone="no" ?>
<!DOCTYPE svg PUBLIC "-//W3C//DTD SVG 1.1//EN" "http://www.w3.org/Graphics/SVG/1.1/DTD/svg11.dtd">
<svg xmlns="http://www.w3.org/2000/svg" xmlns:xlink="http://www.w3.org/1999/xlink" version="1.1" width="1280" height="1024" viewBox="0 0 1280 1024" xml:space="preserve">
<desc>Created with Fabric.js 5.3.0</desc>
<defs>
</defs>
<g transform="matrix(1 0 0 1 640 512)" id="background-logo"  >
<rect style="stroke: none; stroke-width: 0; stroke-dasharray: none; stroke-linecap: butt; stroke-dashoffset: 0; stroke-linejoin: miter; stroke-miterlimit: 4; fill: rgb(10,15,45); fill-rule: nonzero; opacity: 1;"  paint-order="stroke"  x="-640" y="-512" rx="0" ry="0" width="1280" height="1024" />
</g>
<g transform="matrix(1.9211538461538462 0 0 1.9211538461538462 640 411.1239687354312)" id="logo-logo"  >
<g style=""  paint-order="stroke"   >
		<g transform="matrix(1.0409584010645323 0 0 1.0409584010645325 0 0)"  >
<g style=""  paint-order="stroke"   >
		<g transform="matrix(1 0 0 1 0 0)"  >
<path style="stroke: none; stroke-width: 1; stroke-dasharray: none; stroke-linecap: butt; stroke-dashoffset: 0; stroke-linejoin: miter; stroke-miterlimit: 4; fill: rgb(255,255,255); fill-rule: nonzero; opacity: 1;"  paint-order="stroke"  transform=" translate(-100, -98)" d="M 15.78 125.3 L 16.5 149.51999999999998 L 35.769999999999996 159.89 L 50 184.51 L 81.55 184.51 L 102.91 196 L 121.53999999999999 184.51 L 150 184.51 L 165.78 157.20999999999998 L 186.42000000000002 144.48 L 185.77 122.61999999999999 L 200 98 L 184.22 70.7 L 183.5 46.480000000000004 L 164.23 36.12 L 150 11.49 L 118.45 11.49 L 97.09 0 L 78.47 11.49 L 50 11.49 L 34.22 38.78 L 13.58 51.52 L 14.23 73.37 L 0 98 Z M 198.29 98 L 185.68 119.81 L 184.32 73.81 Z M 20.37 147.13 L 19.94 132.49 L 32 153.39 Z M 50.85 183 L 38.25 161.19 L 78.81 183 Z M 102.78 191.42 L 89.87 184.48 L 114 184.48 Z M 149.15 183 L 123.93 183 L 163.12 158.82 Z M 182.41 142.29 L 169.93 150 L 182 129.11 Z M 179.63 48.83999999999999 L 180.07 63.47999999999999 L 168 42.61 Z M 149.15 13 L 161.76 34.81 L 121.19 13 Z M 97.22 4.55 L 110.13 11.49 L 86 11.49 Z M 50.85 13 L 76.07 13 L 36.88 37.15 Z M 83.58 13 L 112.88 13 L 165.51 41.3 L 180.16 66.65 L 181.93 126.34 L 167.28 151.69 L 116.43 183 L 87.12 183 L 34.49 154.7 L 19.84 129.38 L 18.07 69.69 L 32.72 44.34 Z M 30.06 46 L 18 66.88 L 17.61 53.67999999999999 Z M 14.32 76.18 L 15.68 122.18 L 1.71 98 Z" stroke-linecap="round" />
</g>
</g>
</g>
</g>
</g>
<g transform="matrix(1.9211538461538462 0 0 1.9211538461538462 639.7471733299597 676.1668284357343)" id="text-logo"  >
<g style=""  paint-order="stroke"   >
		<g transform="matrix(1 0 0 1 0 0)" id="text-logo-path-0"  >
<path style="stroke: none; stroke-width: 0.5232558139534874; stroke-dasharray: none; stroke-linecap: butt; stroke-dashoffset: 0; stroke-linejoin: miter; stroke-miterlimit: 4; fill: rgb(217,217,216); fill-rule: nonzero; opacity: 1;"  paint-order="stroke"  transform=" translate(-132.435, 15.75)" d="M 4.5 0 L 4.5 -14.63 L 18.5 -14.63 L 18.5 0 L 20.75 0 L 20.75 -31.5 L 18.5 -31.5 L 18.5 -16.88 L 4.5 -16.88 L 4.5 -31.5 L 2.25 -31.5 L 2.25 0 Z M 38.52 -29.25 L 38.52 -26.95 L 40.77 -26.95 L 40.77 -29.25 Z M 38.52 0 L 40.77 0 L 40.77 -22.5 L 38.52 -22.5 Z M 60.79 0 L 60.79 -17.68 L 63.36 -20.25 L 67.59 -20.25 L 70.83 -17.05 L 72.41 -18.63 L 68.53 -22.5 L 62.41 -22.5 L 60.79 -20.88 L 60.79 -22.5 L 58.54 -22.5 L 58.54 0 Z M 101.16 -7.56 L 101.16 -4.81 L 98.59 -2.25 L 95 -2.25 L 92.43 -4.81 L 92.43 -10.57 L 103.41 -10.57 L 103.41 -18.63 L 99.54 -22.5 L 94.05 -22.5 L 90.18 -18.63 L 90.18 -3.87 L 94.05 0 L 99.54 0 L 103.41 -3.87 L 103.41 -7.56 Z M 92.43 -12.82 L 92.43 -17.68 L 95 -20.25 L 98.59 -20.25 L 101.16 -17.68 L 101.16 -12.82 Z M 131.09 -15.75 L 121.19 -15.75 L 121.19 -13.5 L 131.09 -13.5 Z M 165.56 -31.5 L 163.26 -31.5 L 163.26 -19.08 L 158.45 -2.25 L 155.97 -2.25 L 151.11 -19.21 L 151.11 -31.5 L 148.86 -31.5 L 148.86 -18.9 L 154.26 0 L 160.16 0 L 164.43 -14.89 L 168.66 0 L 174.56 0 L 179.96 -18.9 L 179.96 -31.5 L 177.71 -31.5 L 177.71 -19.21 L 172.85 -2.25 L 170.37 -2.25 L 165.56 -19.08 Z M 197.73 -29.25 L 197.73 -26.95 L 199.98 -26.95 L 199.98 -29.25 Z M 197.73 0 L 199.98 0 L 199.98 -22.5 L 197.73 -22.5 Z M 220.01 0 L 220.01 -17.68 L 222.57 -20.25 L 226.8 -20.25 L 230.04 -17.05 L 231.62 -18.63 L 227.75 -22.5 L 221.63 -22.5 L 220.01 -20.88 L 220.01 -22.5 L 217.76 -22.5 L 217.76 0 Z M 260.37 -7.56 L 260.37 -4.81 L 257.81 -2.25 L 254.21 -2.25 L 251.64 -4.81 L 251.64 -10.57 L 262.62 -10.57 L 262.62 -18.63 L 258.75 -22.5 L 253.26 -22.5 L 249.39 -18.63 L 249.39 -3.87 L 253.26 0 L 258.75 0 L 262.62 -3.87 L 262.62 -7.56 Z M 251.64 -12.82 L 251.64 -17.68 L 254.21 -20.25 L 257.81 -20.25 L 260.37 -17.68 L 260.37 -12.82 Z" stroke-linecap="round" />
</g>
</g>
</g>
<g transform="matrix(1.9211538461538462 0 0 1.9211538461538462 640 404.99252938927737)" id="tagline-3a0f327a-aafa-4e44-aa87-18cbd55f8865-logo"  >
<g style=""  paint-order="stroke"   >
		<g transform="matrix(1 0 0 1 0 0)" id="tagline-3a0f327a-aafa-4e44-aa87-18cbd55f8865-logo-path-0"  >
<path style="stroke: none; stroke-width: 0.4944444444444446; stroke-dasharray: none; stroke-linecap: butt; stroke-dashoffset: 0; stroke-linejoin: miter; stroke-miterlimit: 4; fill: rgb(217,217,216); fill-rule: nonzero; opacity: 1;"  paint-order="stroke"  transform=" translate(-30.705, 31.15)" d="M 40.94 -1.78 L 40.94 0 L 58.74 0 L 58.74 -1.78 C 56.07 -1.78 54.29 -2.49 54.29 -5.34 L 54.29 -56.96 C 54.29 -59.81 56.07 -60.52 58.74 -60.52 L 58.74 -62.3 L 40.94 -62.3 L 40.94 -60.52 C 43.61 -60.52 45.39 -59.81 45.39 -56.96 L 45.39 -33.82 C 45.39 -32.75 44.68 -32.04 43.61 -32.04 L 17.8 -32.04 C 16.73 -32.04 16.02 -32.75 16.02 -33.82 L 16.02 -56.96 C 16.02 -59.81 17.8 -60.52 20.47 -60.52 L 20.47 -62.3 L 2.67 -62.3 L 2.67 -60.52 C 5.34 -60.52 7.12 -59.81 7.12 -56.96 L 7.12 -5.34 C 7.12 -2.49 5.34 -1.78 2.67 -1.78 L 2.67 0 L 20.47 0 L 20.47 -1.78 C 17.8 -1.78 16.02 -2.49 16.02 -5.34 L 16.02 -28.48 C 16.02 -29.55 16.73 -30.26 17.8 -30.26 L 43.61 -30.26 C 44.68 -30.26 45.39 -29.55 45.39 -28.48 L 45.39 -5.34 C 45.39 -2.49 43.61 -1.78 40.94 -1.78 Z" stroke-linecap="round" />
</g>
</g>
</g>
<g transform="matrix(1.9211538461538462 0 0 1.9211538461538462 639.343756855037 757.6355936918596)" id="tagline-c74bcc24-f6b5-4e4e-8e9b-35ed7896c59f-logo"  >
<g style=""  paint-order="stroke"   >
		<g transform="matrix(1 0 0 1 5.684342e-14 0)" id="tagline-c74bcc24-f6b5-4e4e-8e9b-35ed7896c59f-logo-path-0"  >
<path style="stroke: none; stroke-width: 0; stroke-dasharray: none; stroke-linecap: butt; stroke-dashoffset: 0; stroke-linejoin: miter; stroke-miterlimit: 4; fill: rgb(255,255,255); fill-rule: nonzero; opacity: 1;"  paint-order="stroke"  transform=" translate(-189.245, 4.492612712429687)" d="M 0.28 -2.98 L 0.28 -2.98 Q 0.28 -3.03 0.28 -3.07 L 0.28 -3.07 Q 0.28 -3.5 0.43 -3.79 L 0.43 -3.79 Q 0.53 -3.91 0.7 -3.98 Q 0.87 -4.06 1.05 -4.05 Q 1.24 -4.04 1.38 -3.95 Q 1.53 -3.86 1.58 -3.66 L 1.58 -3.66 Q 1.58 -3.65 1.59 -3.61 Q 1.61 -3.58 1.62 -3.45 Q 1.63 -3.32 1.66 -3.06 Q 1.68 -2.8 1.72 -2.34 L 1.72 -2.34 Q 1.73 -2.26 1.86 -2.04 Q 1.99 -1.82 2.21 -1.66 L 2.21 -1.66 Q 2.45 -1.48 2.77 -1.44 L 2.77 -1.44 Q 2.82 -1.44 2.86 -1.43 L 2.86 -1.43 Q 3.15 -1.43 3.52 -1.67 L 3.52 -1.67 Q 3.64 -1.76 3.79 -1.91 Q 3.93 -2.06 3.99 -2.19 L 3.99 -2.19 Q 4.11 -2.44 4.11 -2.65 L 4.11 -2.65 Q 4.04 -3.04 3.94 -3.3 Q 3.84 -3.57 3.68 -3.78 Q 3.52 -3.99 3.3 -4.18 Q 3.09 -4.36 2.78 -4.61 L 2.78 -4.61 Q 2.72 -4.66 2.6 -4.75 Q 2.48 -4.84 2.27 -4.99 Q 2.07 -5.15 1.77 -5.39 Q 1.46 -5.64 1.03 -5.99 L 1.03 -5.99 Q 0.81 -6.23 0.69 -6.41 Q 0.58 -6.59 0.53 -6.73 Q 0.48 -6.87 0.46 -6.98 Q 0.45 -7.09 0.45 -7.19 L 0.45 -7.19 Q 0.45 -7.54 0.56 -7.87 Q 0.66 -8.21 0.96 -8.48 Q 1.26 -8.75 1.78 -8.91 Q 2.3 -9.08 3.12 -9.09 L 3.12 -9.09 Q 3.27 -9.09 3.53 -9.07 Q 3.79 -9.04 4.08 -8.98 Q 4.38 -8.92 4.67 -8.82 Q 4.96 -8.71 5.17 -8.55 L 5.17 -8.55 Q 5.37 -8.39 5.43 -8.16 L 5.43 -8.16 Q 5.45 -8.1 5.46 -8.01 L 5.46 -8.01 Q 5.46 -7.84 5.35 -7.64 L 5.35 -7.64 Q 5.21 -7.36 5.03 -7.3 Q 4.85 -7.24 4.67 -7.29 Q 4.48 -7.34 4.33 -7.45 Q 4.18 -7.55 4.08 -7.59 L 4.08 -7.59 Q 3.88 -7.68 3.63 -7.76 Q 3.39 -7.84 3.14 -7.89 Q 2.88 -7.94 2.63 -7.94 Q 2.38 -7.94 2.16 -7.86 L 2.16 -7.86 Q 1.78 -7.71 1.73 -7.39 L 1.73 -7.39 Q 1.72 -7.37 1.72 -7.34 L 1.72 -7.34 Q 1.72 -7.04 2.17 -6.6 L 2.17 -6.6 L 4.53 -4.63 Q 5.02 -4.26 5.29 -3.81 Q 5.56 -3.35 5.63 -2.88 L 5.63 -2.88 Q 5.66 -2.68 5.66 -2.49 L 5.66 -2.49 Q 5.66 -2.22 5.61 -1.96 L 5.61 -1.96 Q 5.51 -1.5 5.27 -1.12 Q 5.02 -0.73 4.66 -0.45 Q 4.3 -0.16 3.85 -0.03 L 3.85 -0.03 Q 3.52 0.09 3.17 0.09 L 3.17 0.09 Q 2.98 0.09 2.78 0.05 L 2.78 0.05 Q 2.22 -0.04 1.73 -0.32 Q 1.25 -0.6 0.89 -1.04 Q 0.53 -1.48 0.44 -2 L 0.44 -2 Q 0.29 -2.49 0.28 -2.98 Z M 13.48 -0.24 L 13.48 -0.24 Q 13.54 -0.34 13.59 -0.45 Q 13.65 -0.55 13.74 -0.89 L 13.74 -0.89 Q 13.83 -1.23 13.87 -1.74 L 13.87 -1.74 Q 13.91 -2.14 13.91 -2.85 L 13.91 -2.85 Q 13.91 -3.05 13.91 -3.27 L 13.91 -3.27 Q 13.89 -4.29 13.88 -5.05 Q 13.87 -5.82 13.71 -8.8 L 13.71 -8.8 Q 13.76 -9.08 13.95 -9.21 L 13.95 -9.21 Q 14.07 -9.29 14.21 -9.28 L 14.21 -9.28 Q 14.27 -9.28 14.34 -9.26 L 14.34 -9.26 Q 14.44 -9.31 14.54 -9.31 L 14.54 -9.31 Q 14.64 -9.32 14.74 -9.27 L 14.74 -9.27 Q 14.94 -9.17 15.05 -8.89 L 15.05 -8.89 Q 15.07 -8.85 15.08 -8.57 Q 15.08 -8.28 15.12 -6.9 L 15.12 -6.9 Q 15.13 -6.36 15.13 -5.96 L 15.13 -5.96 Q 15.14 -5.35 15.1 -5.08 L 15.1 -5.08 Q 15.05 -4.63 15.02 -4.19 L 15.02 -4.19 Q 15.02 -4.13 15.03 -4.07 Q 15.03 -4.01 15.05 -3.94 L 15.05 -3.94 Q 15.37 -4.23 15.66 -4.64 Q 15.95 -5.06 16.15 -5.28 Q 16.34 -5.5 16.75 -5.96 Q 17.17 -6.42 17.51 -6.84 Q 17.85 -7.25 18.13 -7.58 Q 18.41 -7.9 18.54 -8.01 Q 18.67 -8.11 18.79 -8.15 Q 18.92 -8.18 19.07 -8.15 Q 19.23 -8.13 19.52 -8.1 L 19.52 -8.1 L 19.58 -8.1 Q 19.69 -8.08 19.75 -8.01 Q 19.81 -7.94 19.82 -7.85 Q 19.84 -7.76 19.8 -7.67 Q 19.76 -7.59 19.67 -7.54 L 19.67 -7.54 Q 19.6 -7.46 19.41 -7.3 Q 19.22 -7.13 19.01 -6.95 Q 18.8 -6.77 18.39 -6.4 L 18.39 -6.4 Q 18.12 -6.14 17.88 -5.85 Q 17.64 -5.56 17.1 -4.9 L 17.1 -4.9 Q 17.1 -4.75 16.96 -4.57 Q 16.82 -4.4 16.68 -4.3 L 16.68 -4.3 Q 16.76 -4.09 17.05 -3.77 Q 17.33 -3.46 17.73 -3.04 Q 18.12 -2.63 18.57 -2.15 Q 19.02 -1.67 19.72 -0.85 L 19.72 -0.85 Q 19.83 -0.43 19.83 -0.19 L 19.83 -0.19 Q 19.83 -0.08 19.81 0 L 19.81 0 Q 19.73 0.22 19.53 0.3 L 19.53 0.3 Q 19.45 0.33 19.37 0.33 L 19.37 0.33 Q 19.23 0.33 19.08 0.26 L 19.08 0.26 Q 18.82 0.05 18.63 -0.19 Q 18.44 -0.44 18.26 -0.7 Q 18.08 -0.97 17.91 -1.23 Q 17.74 -1.49 17.46 -1.86 Q 17.18 -2.22 16.77 -2.65 Q 16.36 -3.09 15.99 -3.54 L 15.99 -3.54 Q 15.8 -3.32 15.61 -3.13 Q 15.41 -2.93 15.2 -2.82 L 15.2 -2.82 Q 15.05 -2.74 15.05 -2.24 L 15.05 -2.24 Q 15.05 -2.15 15.05 -2.06 L 15.05 -2.06 Q 15.08 -1.39 15.31 -0.75 L 15.31 -0.75 Q 15.45 -0.37 15.45 -0.17 L 15.45 -0.17 Q 15.45 -0.04 15.38 0.01 L 15.38 0.01 Q 15.25 0.11 14.65 0.13 L 14.65 0.13 Q 14.56 0.13 14.48 0.13 L 14.48 0.13 Q 14.01 0.14 13.79 0.06 L 13.79 0.06 Q 13.52 -0.03 13.48 -0.24 Z M 27.82 -4.53 Q 27.75 -5.72 27.75 -6.88 Q 27.75 -8.03 27.9 -9.02 L 27.9 -9.02 Q 27.99 -9.14 28.23 -9.2 Q 28.47 -9.26 28.72 -9.26 Q 28.98 -9.26 29.19 -9.23 Q 29.4 -9.19 29.44 -9.17 L 29.44 -9.17 Q 29.35 -8.35 29.35 -7.39 L 29.35 -7.39 Q 29.35 -7.27 29.35 -7.14 L 29.35 -7.14 Q 29.37 -6.04 29.38 -4.85 L 29.38 -4.85 Q 29.4 -4.26 29.39 -3.66 L 29.39 -3.66 Q 29.39 -3.07 29.38 -2.47 L 29.38 -2.47 Q 29.37 -1.28 29.22 -0.18 L 29.22 -0.18 Q 29.21 -0.07 29.04 0.04 Q 28.88 0.16 28.68 0.21 Q 28.49 0.26 28.32 0.21 Q 28.15 0.17 28.14 -0.04 L 28.14 -0.04 Q 28.1 -1.03 28 -2.18 Q 27.9 -3.34 27.82 -4.53 Z M 37.29 -0.14 L 37.29 -0.14 Q 37.36 -0.71 37.39 -1.52 Q 37.41 -2.34 37.43 -3.24 Q 37.45 -4.15 37.46 -5.06 Q 37.46 -5.97 37.48 -6.71 Q 37.49 -7.45 37.51 -7.95 Q 37.53 -8.45 37.56 -8.53 L 37.56 -8.53 L 37.55 -8.52 Q 37.7 -8.87 38.12 -8.97 L 38.12 -8.97 Q 38.4 -9.04 38.73 -9.04 L 38.73 -9.04 Q 38.89 -9.04 39.07 -9.02 L 39.07 -9.02 Q 39.61 -8.97 40.2 -8.78 Q 40.79 -8.6 41.28 -8.4 L 41.28 -8.4 Q 41.58 -8.27 41.86 -8.1 Q 42.14 -7.93 42.34 -7.69 L 42.34 -7.69 Q 42.56 -7.46 42.66 -7.15 L 42.66 -7.15 Q 42.74 -6.91 42.74 -6.6 L 42.74 -6.6 Q 42.74 -6.52 42.73 -6.45 L 42.73 -6.45 Q 42.69 -5.96 42.45 -5.51 Q 42.2 -5.06 41.79 -4.79 L 41.79 -4.79 Q 41.57 -4.67 41.15 -4.53 Q 40.74 -4.39 40.29 -4.27 Q 39.84 -4.15 39.44 -4.03 Q 39.04 -3.91 38.85 -3.81 L 38.85 -3.81 Q 38.81 -3.48 38.81 -3.06 Q 38.81 -2.65 38.82 -2.15 L 38.82 -2.15 Q 38.83 -1.95 38.83 -1.75 L 38.83 -1.75 Q 38.83 -1.44 38.82 -1.12 L 38.82 -1.12 Q 38.8 -0.58 38.72 0 L 38.72 0 Q 38.57 0.05 38.43 0.08 Q 38.3 0.11 38.14 0.1 Q 37.98 0.09 37.78 0.03 Q 37.58 -0.02 37.29 -0.14 Z M 38.71 -7.78 L 38.71 -7.78 Q 38.8 -7.14 38.81 -6.49 Q 38.81 -5.84 38.85 -5.16 L 38.85 -5.16 Q 39.3 -5.24 39.72 -5.29 Q 40.13 -5.34 40.45 -5.47 Q 40.76 -5.6 40.95 -5.86 L 40.95 -5.86 Q 41.13 -6.11 41.13 -6.58 L 41.13 -6.58 Q 41.13 -6.61 41.13 -6.64 L 41.13 -6.64 Q 41.11 -7.05 40.8 -7.29 Q 40.48 -7.52 40.08 -7.64 Q 39.67 -7.76 39.28 -7.78 L 39.28 -7.78 Q 39.04 -7.79 38.88 -7.79 L 38.88 -7.79 Q 38.78 -7.79 38.71 -7.78 Z M 62.78 -8.24 Q 62.73 -8.4 62.75 -8.57 Q 62.77 -8.73 62.85 -8.85 L 62.85 -8.85 Q 62.97 -9.08 63.34 -9.12 L 63.34 -9.12 Q 63.84 -9.05 64.54 -9.02 L 64.54 -9.02 Q 65.24 -8.98 65.96 -8.97 L 65.96 -8.97 Q 66.41 -8.95 66.82 -8.95 L 66.82 -8.95 Q 67.07 -8.95 67.31 -8.95 L 67.31 -8.95 Q 67.95 -8.97 68.33 -8.98 L 68.33 -8.98 Q 68.52 -8.99 68.67 -8.99 Q 68.82 -8.99 68.93 -8.94 Q 69.05 -8.9 69.12 -8.79 Q 69.19 -8.68 69.21 -8.48 L 69.21 -8.48 Q 69.27 -8.35 69.27 -8.23 L 69.27 -8.23 Q 69.28 -8.13 69.23 -8.04 L 69.23 -8.04 Q 69.13 -7.83 68.79 -7.77 L 68.79 -7.77 Q 68.23 -7.85 67.79 -7.89 L 67.79 -7.89 Q 67.46 -7.91 67.07 -7.92 L 67.07 -7.92 Q 66.92 -7.92 66.77 -7.91 L 66.77 -7.91 Q 66.77 -7.63 66.76 -7.34 Q 66.75 -7.05 66.73 -6.67 Q 66.71 -6.3 66.69 -5.78 Q 66.67 -5.27 66.67 -4.53 L 66.67 -4.53 Q 66.67 -4.17 66.66 -3.74 Q 66.66 -3.31 66.67 -2.82 L 66.67 -2.82 Q 66.67 -1.84 66.7 -0.53 L 66.7 -0.53 Q 66.68 -0.28 66.51 -0.13 Q 66.33 0.03 66.09 0.08 L 66.09 0.08 Q 65.97 0.1 65.86 0.1 L 65.86 0.1 Q 65.73 0.1 65.62 0.08 L 65.62 0.08 Q 65.39 0.03 65.3 -0.13 L 65.3 -0.13 Q 65.3 -0.91 65.25 -1.66 L 65.25 -1.66 Q 65.24 -1.86 65.24 -2.04 L 65.24 -2.04 Q 65.24 -2.56 65.34 -2.98 L 65.34 -2.98 Q 65.34 -3.14 65.34 -3.28 Q 65.34 -3.42 65.34 -3.63 Q 65.35 -3.84 65.35 -4.15 Q 65.35 -4.47 65.36 -4.96 Q 65.36 -5.46 65.37 -6.16 Q 65.37 -6.86 65.37 -7.83 L 65.37 -7.83 Q 65.24 -7.81 65.01 -7.81 L 65.01 -7.81 Q 64.85 -7.81 64.65 -7.82 L 64.65 -7.82 Q 64.15 -7.84 63.26 -7.84 L 63.26 -7.84 Q 63.07 -7.86 62.95 -7.97 Q 62.83 -8.09 62.78 -8.24 Z M 77.01 -0.95 Q 76.98 -1.58 76.98 -2.42 Q 76.98 -3.26 77.02 -4.22 Q 77.05 -5.19 77.1 -6.09 Q 77.15 -6.99 77.24 -7.74 Q 77.33 -8.5 77.45 -8.94 L 77.45 -8.94 Q 77.63 -8.97 77.8 -9.03 Q 77.97 -9.09 78.15 -9.11 Q 78.32 -9.13 78.49 -9.08 Q 78.66 -9.03 78.83 -8.85 L 78.83 -8.85 Q 79.05 -8.62 79.06 -8.24 L 79.06 -8.24 Q 79.06 -8.21 79.06 -8.17 L 79.06 -8.17 Q 79.07 -7.81 79 -7.41 L 79 -7.41 Q 78.94 -6.97 78.88 -6.51 L 78.88 -6.51 Q 78.85 -6.31 78.85 -6.13 L 78.85 -6.13 Q 78.85 -5.87 78.9 -5.62 L 78.9 -5.62 Q 78.98 -5.64 79.06 -5.64 Q 79.14 -5.65 79.25 -5.65 L 79.25 -5.65 Q 79.62 -5.67 79.98 -5.67 Q 80.34 -5.67 80.7 -5.65 L 80.7 -5.65 Q 81.41 -5.6 82.17 -5.51 L 82.17 -5.51 Q 82.29 -5.97 82.3 -6.42 L 82.3 -6.42 Q 82.31 -6.63 82.31 -6.83 L 82.31 -6.83 Q 82.31 -7.07 82.3 -7.3 L 82.3 -7.3 Q 82.28 -7.73 82.26 -8.11 L 82.26 -8.11 Q 82.25 -8.2 82.25 -8.29 L 82.25 -8.29 Q 82.25 -8.57 82.3 -8.81 L 82.3 -8.81 Q 82.33 -8.94 82.51 -9.05 Q 82.68 -9.17 82.92 -9.22 L 82.92 -9.22 Q 83.06 -9.25 83.21 -9.24 L 83.21 -9.24 Q 83.3 -9.24 83.39 -9.23 L 83.39 -9.23 Q 83.62 -9.21 83.77 -9.08 L 83.77 -9.08 Q 84.04 -7.62 84.04 -6.38 L 84.04 -6.38 Q 84.04 -6.23 84.03 -6.07 L 84.03 -6.07 Q 83.99 -4.7 83.88 -3.62 Q 83.76 -2.55 83.72 -1.77 L 83.72 -1.77 Q 83.72 -1.68 83.72 -1.6 L 83.72 -1.6 Q 83.72 -0.94 83.98 -0.51 L 83.98 -0.51 Q 84.06 -0.33 83.88 -0.2 Q 83.71 -0.08 83.44 -0.01 Q 83.16 0.06 82.87 0.06 Q 82.57 0.06 82.43 -0.01 L 82.43 -0.01 Q 82.33 -0.05 82.24 -0.13 Q 82.16 -0.22 82.11 -0.32 Q 82.07 -0.43 82.08 -0.53 Q 82.08 -0.64 82.18 -0.75 L 82.18 -0.75 Q 82.21 -1.26 82.21 -1.71 Q 82.21 -2.17 82.19 -2.6 Q 82.17 -3.03 82.14 -3.45 Q 82.11 -3.86 82.08 -4.3 L 82.08 -4.3 Q 81.32 -4.33 80.44 -4.36 L 80.44 -4.36 Q 80.14 -4.37 79.86 -4.37 L 79.86 -4.37 Q 79.28 -4.37 78.74 -4.33 L 78.74 -4.33 Q 78.74 -4.02 78.76 -3.56 Q 78.78 -3.11 78.8 -2.55 L 78.8 -2.55 Q 78.8 -2.36 78.8 -2.17 L 78.8 -2.17 Q 78.8 -1.78 78.78 -1.37 L 78.78 -1.37 Q 78.76 -0.75 78.68 -0.1 L 78.68 -0.1 Q 78.23 0.04 77.92 0.04 L 77.92 0.04 Q 77.89 0.04 77.86 0.04 L 77.86 0.04 Q 77.52 0.03 77.08 -0.06 L 77.08 -0.06 Q 77.03 -0.32 77.01 -0.95 Z M 91.92 -5.37 L 91.92 -5.37 Q 92.03 -7.66 92.32 -8.93 L 92.32 -8.93 L 97.42 -9.08 Q 97.72 -9.05 97.88 -8.82 Q 98.05 -8.59 98.08 -8.33 L 98.08 -8.33 Q 98.09 -8.26 98.09 -8.2 L 98.09 -8.2 Q 98.09 -8.01 98.01 -7.85 L 98.01 -7.85 Q 97.91 -7.64 97.68 -7.64 L 97.68 -7.64 Q 97.17 -7.59 96.68 -7.57 L 96.68 -7.57 Q 96.52 -7.57 96.36 -7.57 L 96.36 -7.57 Q 96.03 -7.57 95.7 -7.58 L 95.7 -7.58 Q 95.2 -7.6 94.67 -7.63 Q 94.14 -7.66 93.52 -7.68 L 93.52 -7.68 Q 93.57 -7.58 93.55 -7.29 Q 93.54 -7 93.52 -6.63 L 93.52 -6.63 Q 93.49 -6.26 93.47 -5.87 L 93.47 -5.87 Q 93.45 -5.67 93.45 -5.5 Q 93.45 -5.32 93.47 -5.16 L 93.47 -5.16 Q 93.89 -5.14 94.25 -5.14 L 94.25 -5.14 Q 94.61 -5.14 94.94 -5.14 L 94.94 -5.14 Q 95.1 -5.14 95.27 -5.14 Q 95.43 -5.14 95.59 -5.14 L 95.59 -5.14 Q 95.92 -5.14 96.31 -5.1 L 96.31 -5.1 Q 96.6 -5.05 96.7 -4.83 L 96.7 -4.83 Q 96.77 -4.67 96.77 -4.51 L 96.77 -4.51 Q 96.77 -4.45 96.76 -4.39 L 96.76 -4.39 Q 96.72 -4.16 96.58 -3.99 Q 96.44 -3.81 96.24 -3.85 L 96.24 -3.85 Q 95.94 -3.81 95.58 -3.81 L 95.58 -3.81 Q 95.54 -3.81 95.49 -3.81 L 95.49 -3.81 Q 95.08 -3.81 94.66 -3.82 L 94.66 -3.82 Q 94.39 -3.83 94.14 -3.83 L 94.14 -3.83 Q 94.01 -3.83 93.9 -3.83 L 93.9 -3.83 Q 93.55 -3.82 93.38 -3.76 L 93.38 -3.76 Q 93.33 -3.27 93.31 -2.73 Q 93.3 -2.18 93.23 -1.57 L 93.23 -1.57 Q 93.23 -1.53 93.21 -1.45 L 93.21 -1.45 Q 93.23 -1.45 93.25 -1.44 L 93.25 -1.44 Q 93.79 -1.39 94.22 -1.37 Q 94.65 -1.35 95.06 -1.35 Q 95.46 -1.35 95.86 -1.37 Q 96.26 -1.39 96.73 -1.42 L 96.73 -1.42 Q 97.03 -1.45 97.23 -1.45 L 97.23 -1.45 Q 97.42 -1.45 97.52 -1.43 L 97.52 -1.43 Q 97.76 -1.39 97.83 -1.26 Q 97.9 -1.13 97.91 -0.91 Q 97.91 -0.7 98.02 -0.4 L 98.02 -0.4 Q 98.02 -0.13 97.77 -0.08 L 97.77 -0.08 Q 97.37 0 96.91 0.01 Q 96.46 0.01 96.06 0.03 L 96.06 0.03 Q 95.62 0.03 95.1 0.01 Q 94.57 0 94.02 -0.01 L 94.02 -0.01 Q 93.48 -0.03 92.96 -0.04 L 92.96 -0.04 Q 92.69 -0.04 92.45 -0.04 Q 92.21 -0.04 91.99 -0.04 L 91.99 -0.04 Q 91.88 -1.94 91.88 -3.55 L 91.88 -3.55 Q 91.87 -4.51 91.92 -5.37 Z M 118 -0.95 L 118 -0.95 Q 118.02 -1.58 118.08 -2.68 Q 118.15 -3.77 118.21 -5.32 Q 118.27 -6.87 118.27 -8.86 L 118.27 -8.86 Q 118.69 -8.97 119.27 -8.98 L 119.27 -8.98 Q 119.41 -8.98 119.57 -8.99 L 119.57 -8.99 Q 120.04 -8.99 120.58 -8.97 L 120.58 -8.97 Q 121.31 -8.94 122.15 -8.9 Q 123 -8.86 123.92 -8.86 L 123.92 -8.86 Q 124.1 -8.86 124.15 -8.73 Q 124.2 -8.59 124.19 -8.41 Q 124.18 -8.23 124.14 -8.04 Q 124.1 -7.86 124.12 -7.76 L 124.12 -7.76 Q 123.08 -7.61 122 -7.59 Q 120.92 -7.56 119.68 -7.55 L 119.68 -7.55 Q 119.58 -6.96 119.54 -6.4 L 119.54 -6.4 Q 119.51 -6.04 119.51 -5.66 L 119.51 -5.66 Q 119.51 -5.44 119.52 -5.21 L 119.52 -5.21 Q 119.95 -5.19 120.28 -5.15 Q 120.61 -5.12 120.93 -5.11 L 120.93 -5.11 Q 121.08 -5.1 121.24 -5.1 Q 121.41 -5.1 121.57 -5.11 L 121.57 -5.11 Q 121.91 -5.12 122.33 -5.19 L 122.33 -5.19 Q 122.76 -4.77 122.86 -4.49 L 122.86 -4.49 Q 122.91 -4.36 122.91 -4.25 L 122.91 -4.25 Q 122.91 -4.14 122.85 -4.05 L 122.85 -4.05 Q 122.74 -3.89 122.46 -3.82 L 122.46 -3.82 Q 122.19 -3.75 121.82 -3.74 L 121.82 -3.74 Q 121.68 -3.73 121.53 -3.73 L 121.53 -3.73 Q 121.29 -3.73 121.06 -3.74 L 121.06 -3.74 Q 120.66 -3.76 120.33 -3.79 Q 120 -3.81 119.78 -3.81 Q 119.56 -3.81 119.55 -3.76 L 119.55 -3.76 Q 119.48 -3.29 119.47 -2.81 Q 119.46 -2.34 119.46 -1.86 Q 119.45 -1.37 119.4 -0.89 Q 119.35 -0.41 119.23 0.06 L 119.23 0.06 Q 119.16 0.06 119.12 0.07 Q 119.07 0.08 119.01 0.08 L 119.01 0.08 Q 118.85 0.06 118.68 0.06 Q 118.5 0.06 118.36 0.04 Q 118.22 0.03 118.14 -0.02 Q 118.05 -0.07 118.08 -0.17 L 118.08 -0.17 Q 118 -0.3 118 -0.76 L 118 -0.76 Q 118 -0.85 118 -0.95 Z M 132.01 -4.53 Q 131.93 -5.72 131.93 -6.88 Q 131.93 -8.03 132.08 -9.02 L 132.08 -9.02 Q 132.17 -9.14 132.41 -9.2 Q 132.65 -9.26 132.91 -9.26 Q 133.16 -9.26 133.38 -9.23 Q 133.59 -9.19 133.63 -9.17 L 133.63 -9.17 Q 133.54 -8.35 133.54 -7.39 L 133.54 -7.39 Q 133.54 -7.27 133.54 -7.14 L 133.54 -7.14 Q 133.55 -6.04 133.57 -4.85 L 133.57 -4.85 Q 133.58 -4.26 133.58 -3.66 L 133.58 -3.66 Q 133.58 -3.07 133.57 -2.47 L 133.57 -2.47 Q 133.55 -1.28 133.41 -0.18 L 133.41 -0.18 Q 133.39 -0.07 133.23 0.04 Q 133.06 0.16 132.87 0.21 Q 132.68 0.26 132.51 0.21 Q 132.34 0.17 132.33 -0.04 L 132.33 -0.04 Q 132.29 -1.03 132.19 -2.18 Q 132.08 -3.34 132.01 -4.53 Z M 141.48 -0.14 L 141.48 -0.14 Q 141.54 -0.71 141.57 -1.52 Q 141.6 -2.34 141.62 -3.24 Q 141.64 -4.15 141.64 -5.06 Q 141.65 -5.97 141.66 -6.71 Q 141.67 -7.45 141.69 -7.95 Q 141.71 -8.45 141.75 -8.53 L 141.75 -8.53 L 141.74 -8.52 Q 141.89 -8.87 142.3 -8.97 L 142.3 -8.97 Q 142.58 -9.04 142.92 -9.04 L 142.92 -9.04 Q 143.08 -9.04 143.25 -9.02 L 143.25 -9.02 Q 143.79 -8.97 144.38 -8.78 Q 144.97 -8.6 145.46 -8.4 L 145.46 -8.4 Q 145.77 -8.27 146.05 -8.1 Q 146.32 -7.93 146.53 -7.69 L 146.53 -7.69 Q 146.74 -7.46 146.84 -7.15 L 146.84 -7.15 Q 146.92 -6.91 146.92 -6.6 L 146.92 -6.6 Q 146.92 -6.52 146.92 -6.45 L 146.92 -6.45 Q 146.88 -5.96 146.63 -5.51 Q 146.39 -5.06 145.98 -4.79 L 145.98 -4.79 Q 145.83 -4.72 145.7 -4.64 Q 145.57 -4.57 145.41 -4.51 Q 145.25 -4.45 145.06 -4.38 Q 144.87 -4.31 144.6 -4.24 L 144.6 -4.24 L 145.66 -1.99 Q 145.88 -1.57 146.02 -1.33 Q 146.16 -1.09 146.23 -0.95 Q 146.31 -0.81 146.35 -0.73 Q 146.39 -0.65 146.41 -0.6 L 146.41 -0.6 Q 146.49 -0.4 146.46 -0.24 Q 146.43 -0.08 146.32 0.03 Q 146.22 0.13 146.06 0.16 Q 145.9 0.19 145.72 0.13 L 145.72 0.13 L 143.17 -3.7 L 143.07 -3.79 Q 143.06 -3.8 143.05 -3.8 Q 143.05 -3.8 143.04 -3.81 L 143.04 -3.81 L 142.92 0 Q 142.76 0.05 142.62 0.08 Q 142.48 0.11 142.32 0.1 Q 142.16 0.09 141.96 0.04 Q 141.76 -0.01 141.48 -0.14 Z M 142.9 -7.78 L 142.9 -7.78 Q 142.99 -7.14 142.99 -6.49 Q 143 -5.84 143.04 -5.16 L 143.04 -5.16 Q 143.49 -5.24 143.9 -5.29 Q 144.32 -5.34 144.63 -5.47 Q 144.95 -5.6 145.14 -5.86 L 145.14 -5.86 Q 145.31 -6.11 145.31 -6.58 L 145.31 -6.58 Q 145.31 -6.61 145.31 -6.64 L 145.31 -6.64 Q 145.3 -7.05 144.98 -7.29 Q 144.67 -7.52 144.26 -7.64 Q 143.86 -7.76 143.46 -7.78 L 143.46 -7.78 Q 143.22 -7.79 143.07 -7.79 L 143.07 -7.79 Q 142.97 -7.79 142.9 -7.78 Z M 154.47 -5.37 L 154.47 -5.37 Q 154.58 -7.66 154.88 -8.93 L 154.88 -8.93 L 159.98 -9.08 Q 160.27 -9.05 160.44 -8.82 Q 160.6 -8.59 160.63 -8.33 L 160.63 -8.33 Q 160.64 -8.26 160.64 -8.2 L 160.64 -8.2 Q 160.64 -8.01 160.56 -7.85 L 160.56 -7.85 Q 160.46 -7.64 160.23 -7.64 L 160.23 -7.64 Q 159.72 -7.59 159.24 -7.57 L 159.24 -7.57 Q 159.07 -7.57 158.91 -7.57 L 158.91 -7.57 Q 158.58 -7.57 158.26 -7.58 L 158.26 -7.58 Q 157.76 -7.6 157.22 -7.63 Q 156.69 -7.66 156.07 -7.68 L 156.07 -7.68 Q 156.12 -7.58 156.11 -7.29 Q 156.09 -7 156.07 -6.63 L 156.07 -6.63 Q 156.04 -6.26 156.02 -5.87 L 156.02 -5.87 Q 156.01 -5.67 156.01 -5.5 Q 156.01 -5.32 156.02 -5.16 L 156.02 -5.16 Q 156.44 -5.14 156.8 -5.14 L 156.8 -5.14 Q 157.17 -5.14 157.49 -5.14 L 157.49 -5.14 Q 157.66 -5.14 157.82 -5.14 Q 157.98 -5.14 158.14 -5.14 L 158.14 -5.14 Q 158.47 -5.14 158.86 -5.1 L 158.86 -5.1 Q 159.15 -5.05 159.25 -4.83 L 159.25 -4.83 Q 159.32 -4.67 159.32 -4.51 L 159.32 -4.51 Q 159.32 -4.45 159.31 -4.39 L 159.31 -4.39 Q 159.27 -4.16 159.13 -3.99 Q 159 -3.81 158.79 -3.85 L 158.79 -3.85 Q 158.5 -3.81 158.13 -3.81 L 158.13 -3.81 Q 158.09 -3.81 158.04 -3.81 L 158.04 -3.81 Q 157.63 -3.81 157.22 -3.82 L 157.22 -3.82 Q 156.94 -3.83 156.7 -3.83 L 156.7 -3.83 Q 156.56 -3.83 156.45 -3.83 L 156.45 -3.83 Q 156.1 -3.82 155.93 -3.76 L 155.93 -3.76 Q 155.88 -3.27 155.86 -2.73 Q 155.85 -2.18 155.79 -1.57 L 155.79 -1.57 Q 155.79 -1.53 155.76 -1.45 L 155.76 -1.45 Q 155.79 -1.45 155.8 -1.44 L 155.8 -1.44 Q 156.34 -1.39 156.77 -1.37 Q 157.2 -1.35 157.61 -1.35 Q 158.01 -1.35 158.41 -1.37 Q 158.81 -1.39 159.28 -1.42 L 159.28 -1.42 Q 159.58 -1.45 159.79 -1.45 L 159.79 -1.45 Q 159.97 -1.45 160.08 -1.43 L 160.08 -1.43 Q 160.31 -1.39 160.38 -1.26 Q 160.45 -1.13 160.46 -0.91 Q 160.46 -0.7 160.58 -0.4 L 160.58 -0.4 Q 160.58 -0.13 160.32 -0.08 L 160.32 -0.08 Q 159.92 0 159.47 0.01 Q 159.01 0.01 158.61 0.03 L 158.61 0.03 Q 158.18 0.03 157.65 0.01 Q 157.12 0 156.58 -0.01 L 156.58 -0.01 Q 156.04 -0.03 155.51 -0.04 L 155.51 -0.04 Q 155.25 -0.04 155.01 -0.04 Q 154.76 -0.04 154.54 -0.04 L 154.54 -0.04 Q 154.43 -1.94 154.43 -3.55 L 154.43 -3.55 Q 154.43 -4.51 154.47 -5.37 Z M 168.58 -0.58 Q 168.53 -0.7 168.53 -0.8 Q 168.53 -0.91 168.58 -1.01 Q 168.63 -1.12 168.71 -1.18 L 168.71 -1.18 Q 168.73 -1.42 168.93 -1.58 Q 169.14 -1.73 169.43 -1.63 L 169.43 -1.63 Q 169.7 -1.76 170.02 -1.56 L 170.02 -1.56 Q 170.14 -1.37 170.14 -1.2 Q 170.14 -1.03 170.07 -0.88 L 170.07 -0.88 Q 170.06 -0.86 170.05 -0.85 Q 170.05 -0.85 170.04 -0.82 L 170.04 -0.82 Q 170.02 -0.77 170.02 -0.73 Q 170.02 -0.7 170 -0.65 L 170 -0.65 Q 170.11 -0.46 170.1 -0.27 Q 170.09 -0.08 169.98 0.05 Q 169.87 0.18 169.7 0.21 Q 169.53 0.24 169.33 0.1 L 169.33 0.1 Q 169.13 -0.04 169.1 -0.27 L 169.1 -0.27 Q 168.92 -0.24 168.76 -0.38 L 168.76 -0.38 Q 168.63 -0.47 168.58 -0.58 Z M 190.38 -3.24 L 190.38 -3.24 Q 190.3 -3.69 190.3 -4.14 L 190.3 -4.14 Q 190.3 -4.63 190.39 -5.12 L 190.39 -5.12 Q 190.55 -6.06 191.02 -6.9 Q 191.48 -7.74 192.21 -8.3 Q 192.93 -8.86 193.89 -9.03 L 193.89 -9.03 Q 194.18 -9.09 194.5 -9.09 L 194.5 -9.09 Q 195.21 -9.09 196.02 -8.81 L 196.02 -8.81 Q 196.3 -8.71 196.5 -8.48 Q 196.69 -8.25 196.76 -7.98 L 196.76 -7.98 Q 196.79 -7.86 196.79 -7.75 L 196.79 -7.75 Q 196.79 -7.59 196.74 -7.44 L 196.74 -7.44 Q 196.64 -7.17 196.35 -7 L 196.35 -7 Q 196.25 -6.98 196.16 -6.98 L 196.16 -6.98 Q 195.92 -6.98 195.76 -7.12 L 195.76 -7.12 Q 195.57 -7.3 195.57 -7.52 L 195.57 -7.52 Q 195.57 -7.56 195.58 -7.6 L 195.58 -7.6 Q 195.55 -7.61 195.52 -7.63 Q 195.49 -7.64 195.44 -7.67 L 195.44 -7.67 Q 194.82 -8.08 194.28 -8.1 L 194.28 -8.1 Q 194.23 -8.11 194.19 -8.11 L 194.19 -8.11 Q 193.7 -8.11 193.31 -7.88 L 193.31 -7.88 Q 192.88 -7.63 192.56 -7.15 Q 192.25 -6.68 192.07 -6.09 Q 191.89 -5.5 191.84 -4.84 L 191.84 -4.84 Q 191.82 -4.63 191.82 -4.42 L 191.82 -4.42 Q 191.82 -3.99 191.9 -3.59 L 191.9 -3.59 Q 192 -2.99 192.27 -2.51 Q 192.54 -2.02 192.97 -1.74 Q 193.41 -1.46 194.02 -1.45 L 194.02 -1.45 Q 194.03 -1.45 194.04 -1.45 L 194.04 -1.45 Q 194.65 -1.45 195.46 -1.82 L 195.46 -1.82 Q 195.76 -2.31 195.82 -2.62 L 195.82 -2.62 Q 195.83 -2.72 195.83 -2.8 L 195.83 -2.8 Q 195.83 -2.98 195.75 -3.11 L 195.75 -3.11 Q 195.63 -3.3 195.38 -3.39 Q 195.14 -3.48 194.85 -3.52 Q 194.56 -3.56 194.28 -3.56 Q 194 -3.57 193.81 -3.59 L 193.81 -3.59 Q 193.74 -3.76 193.75 -3.95 Q 193.75 -4.13 193.82 -4.3 Q 193.9 -4.47 194 -4.6 Q 194.11 -4.73 194.25 -4.78 L 194.25 -4.78 Q 194.38 -4.82 194.64 -4.81 Q 194.89 -4.8 195.2 -4.77 Q 195.5 -4.74 195.8 -4.69 Q 196.1 -4.63 196.32 -4.6 L 196.32 -4.6 Q 196.65 -4.53 196.82 -4.48 Q 196.99 -4.43 197.06 -4.33 Q 197.13 -4.23 197.14 -4.03 Q 197.14 -3.84 197.16 -3.51 L 197.16 -3.51 Q 197.17 -3.3 197.17 -3.09 L 197.17 -3.09 Q 197.17 -2.68 197.13 -2.26 L 197.13 -2.26 Q 197.05 -1.61 196.8 -1.07 Q 196.54 -0.53 196.04 -0.18 Q 195.54 0.17 194.7 0.17 L 194.7 0.17 Q 193.37 0.17 192.47 -0.31 Q 191.57 -0.78 191.05 -1.54 Q 190.53 -2.29 190.38 -3.24 Z M 205.1 -5.37 L 205.1 -5.37 Q 205.22 -7.66 205.51 -8.93 L 205.51 -8.93 L 210.61 -9.08 Q 210.9 -9.05 211.07 -8.82 Q 211.24 -8.59 211.27 -8.33 L 211.27 -8.33 Q 211.27 -8.26 211.27 -8.2 L 211.27 -8.2 Q 211.27 -8.01 211.2 -7.85 L 211.2 -7.85 Q 211.1 -7.64 210.87 -7.64 L 210.87 -7.64 Q 210.35 -7.59 209.87 -7.57 L 209.87 -7.57 Q 209.71 -7.57 209.54 -7.57 L 209.54 -7.57 Q 209.22 -7.57 208.89 -7.58 L 208.89 -7.58 Q 208.39 -7.6 207.86 -7.63 Q 207.32 -7.66 206.7 -7.68 L 206.7 -7.68 Q 206.75 -7.58 206.74 -7.29 Q 206.73 -7 206.7 -6.63 L 206.7 -6.63 Q 206.68 -6.26 206.65 -5.87 L 206.65 -5.87 Q 206.64 -5.67 206.64 -5.5 Q 206.64 -5.32 206.65 -5.16 L 206.65 -5.16 Q 207.08 -5.14 207.44 -5.14 L 207.44 -5.14 Q 207.8 -5.14 208.13 -5.14 L 208.13 -5.14 Q 208.29 -5.14 208.45 -5.14 Q 208.62 -5.14 208.78 -5.14 L 208.78 -5.14 Q 209.11 -5.14 209.49 -5.1 L 209.49 -5.1 Q 209.78 -5.05 209.88 -4.83 L 209.88 -4.83 Q 209.96 -4.67 209.96 -4.51 L 209.96 -4.51 Q 209.96 -4.45 209.95 -4.39 L 209.95 -4.39 Q 209.91 -4.16 209.77 -3.99 Q 209.63 -3.81 209.43 -3.85 L 209.43 -3.85 Q 209.13 -3.81 208.77 -3.81 L 208.77 -3.81 Q 208.73 -3.81 208.68 -3.81 L 208.68 -3.81 Q 208.26 -3.81 207.85 -3.82 L 207.85 -3.82 Q 207.58 -3.83 207.33 -3.83 L 207.33 -3.83 Q 207.2 -3.83 207.09 -3.83 L 207.09 -3.83 Q 206.73 -3.82 206.57 -3.76 L 206.57 -3.76 Q 206.52 -3.27 206.5 -2.73 Q 206.48 -2.18 206.42 -1.57 L 206.42 -1.57 Q 206.42 -1.53 206.4 -1.45 L 206.4 -1.45 Q 206.42 -1.45 206.43 -1.44 L 206.43 -1.44 Q 206.97 -1.39 207.41 -1.37 Q 207.84 -1.35 208.24 -1.35 Q 208.65 -1.35 209.05 -1.37 Q 209.44 -1.39 209.91 -1.42 L 209.91 -1.42 Q 210.22 -1.45 210.42 -1.45 L 210.42 -1.45 Q 210.6 -1.45 210.71 -1.43 L 210.71 -1.43 Q 210.94 -1.39 211.01 -1.26 Q 211.09 -1.13 211.09 -0.91 Q 211.1 -0.7 211.21 -0.4 L 211.21 -0.4 Q 211.21 -0.13 210.96 -0.08 L 210.96 -0.08 Q 210.56 0 210.1 0.01 Q 209.64 0.01 209.25 0.03 L 209.25 0.03 Q 208.81 0.03 208.28 0.01 Q 207.76 0 207.21 -0.01 L 207.21 -0.01 Q 206.67 -0.03 206.15 -0.04 L 206.15 -0.04 Q 205.88 -0.04 205.64 -0.04 Q 205.4 -0.04 205.18 -0.04 L 205.18 -0.04 Q 205.07 -1.94 205.07 -3.55 L 205.07 -3.55 Q 205.06 -4.51 205.1 -5.37 Z M 218.89 -8.24 Q 218.84 -8.4 218.86 -8.57 Q 218.88 -8.73 218.95 -8.85 L 218.95 -8.85 Q 219.07 -9.08 219.44 -9.12 L 219.44 -9.12 Q 219.94 -9.05 220.65 -9.02 L 220.65 -9.02 Q 221.35 -8.98 222.06 -8.97 L 222.06 -8.97 Q 222.51 -8.95 222.93 -8.95 L 222.93 -8.95 Q 223.18 -8.95 223.42 -8.95 L 223.42 -8.95 Q 224.06 -8.97 224.44 -8.98 L 224.44 -8.98 Q 224.62 -8.99 224.77 -8.99 Q 224.92 -8.99 225.04 -8.94 Q 225.15 -8.9 225.23 -8.79 Q 225.3 -8.68 225.31 -8.48 L 225.31 -8.48 Q 225.38 -8.35 225.38 -8.23 L 225.38 -8.23 Q 225.39 -8.13 225.34 -8.04 L 225.34 -8.04 Q 225.24 -7.83 224.9 -7.77 L 224.9 -7.77 Q 224.33 -7.85 223.89 -7.89 L 223.89 -7.89 Q 223.57 -7.91 223.17 -7.92 L 223.17 -7.92 Q 223.03 -7.92 222.87 -7.91 L 222.87 -7.91 Q 222.87 -7.63 222.87 -7.34 Q 222.86 -7.05 222.84 -6.67 Q 222.82 -6.3 222.8 -5.78 Q 222.78 -5.27 222.77 -4.53 L 222.77 -4.53 Q 222.77 -4.17 222.77 -3.74 Q 222.77 -3.31 222.77 -2.82 L 222.77 -2.82 Q 222.78 -1.84 222.8 -0.53 L 222.8 -0.53 Q 222.79 -0.28 222.61 -0.13 Q 222.43 0.03 222.2 0.08 L 222.2 0.08 Q 222.08 0.1 221.96 0.1 L 221.96 0.1 Q 221.84 0.1 221.72 0.08 L 221.72 0.08 Q 221.5 0.03 221.4 -0.13 L 221.4 -0.13 Q 221.4 -0.91 221.36 -1.66 L 221.36 -1.66 Q 221.35 -1.86 221.35 -2.04 L 221.35 -2.04 Q 221.35 -2.56 221.44 -2.98 L 221.44 -2.98 Q 221.44 -3.14 221.44 -3.28 Q 221.44 -3.42 221.45 -3.63 Q 221.46 -3.84 221.46 -4.15 Q 221.46 -4.47 221.46 -4.96 Q 221.47 -5.46 221.47 -6.16 Q 221.48 -6.86 221.48 -7.83 L 221.48 -7.83 Q 221.35 -7.81 221.12 -7.81 L 221.12 -7.81 Q 220.96 -7.81 220.76 -7.82 L 220.76 -7.82 Q 220.26 -7.84 219.37 -7.84 L 219.37 -7.84 Q 219.17 -7.86 219.06 -7.97 Q 218.94 -8.09 218.89 -8.24 Z M 245.35 -0.95 Q 245.33 -1.58 245.33 -2.42 Q 245.33 -3.26 245.36 -4.22 Q 245.39 -5.19 245.44 -6.09 Q 245.5 -6.99 245.58 -7.74 Q 245.67 -8.5 245.79 -8.94 L 245.79 -8.94 Q 245.97 -8.97 246.15 -9.03 Q 246.32 -9.09 246.49 -9.11 Q 246.66 -9.13 246.84 -9.08 Q 247.01 -9.03 247.18 -8.85 L 247.18 -8.85 Q 247.4 -8.62 247.4 -8.24 L 247.4 -8.24 Q 247.4 -8.21 247.4 -8.17 L 247.4 -8.17 Q 247.41 -7.81 247.35 -7.41 L 247.35 -7.41 Q 247.28 -6.97 247.22 -6.51 L 247.22 -6.51 Q 247.2 -6.31 247.2 -6.13 L 247.2 -6.13 Q 247.2 -5.87 247.24 -5.62 L 247.24 -5.62 Q 247.33 -5.64 247.41 -5.64 Q 247.48 -5.65 247.6 -5.65 L 247.6 -5.65 Q 247.96 -5.67 248.32 -5.67 Q 248.69 -5.67 249.04 -5.65 L 249.04 -5.65 Q 249.75 -5.6 250.51 -5.51 L 250.51 -5.51 Q 250.63 -5.97 250.64 -6.42 L 250.64 -6.42 Q 250.65 -6.63 250.65 -6.83 L 250.65 -6.83 Q 250.65 -7.07 250.64 -7.3 L 250.64 -7.3 Q 250.62 -7.73 250.6 -8.11 L 250.6 -8.11 Q 250.59 -8.2 250.59 -8.29 L 250.59 -8.29 Q 250.59 -8.57 250.64 -8.81 L 250.64 -8.81 Q 250.67 -8.94 250.85 -9.05 Q 251.03 -9.17 251.26 -9.22 L 251.26 -9.22 Q 251.4 -9.25 251.55 -9.24 L 251.55 -9.24 Q 251.64 -9.24 251.73 -9.23 L 251.73 -9.23 Q 251.97 -9.21 252.12 -9.08 L 252.12 -9.08 Q 252.38 -7.62 252.38 -6.38 L 252.38 -6.38 Q 252.38 -6.23 252.38 -6.07 L 252.38 -6.07 Q 252.34 -4.7 252.22 -3.62 Q 252.11 -2.55 252.07 -1.77 L 252.07 -1.77 Q 252.06 -1.68 252.06 -1.6 L 252.06 -1.6 Q 252.06 -0.94 252.33 -0.51 L 252.33 -0.51 Q 252.4 -0.33 252.23 -0.2 Q 252.06 -0.08 251.78 -0.01 Q 251.5 0.06 251.21 0.06 Q 250.91 0.06 250.77 -0.01 L 250.77 -0.01 Q 250.67 -0.05 250.59 -0.13 Q 250.5 -0.22 250.46 -0.32 Q 250.41 -0.43 250.42 -0.53 Q 250.43 -0.64 250.53 -0.75 L 250.53 -0.75 Q 250.55 -1.26 250.55 -1.71 Q 250.55 -2.17 250.53 -2.6 Q 250.51 -3.03 250.48 -3.45 Q 250.45 -3.86 250.43 -4.3 L 250.43 -4.3 Q 249.67 -4.33 248.78 -4.36 L 248.78 -4.36 Q 248.49 -4.37 248.2 -4.37 L 248.2 -4.37 Q 247.62 -4.37 247.08 -4.33 L 247.08 -4.33 Q 247.08 -4.02 247.1 -3.56 Q 247.13 -3.11 247.14 -2.55 L 247.14 -2.55 Q 247.15 -2.36 247.15 -2.17 L 247.15 -2.17 Q 247.15 -1.78 247.13 -1.37 L 247.13 -1.37 Q 247.1 -0.75 247.02 -0.1 L 247.02 -0.1 Q 246.58 0.04 246.26 0.04 L 246.26 0.04 Q 246.23 0.04 246.2 0.04 L 246.2 0.04 Q 245.87 0.03 245.43 -0.06 L 245.43 -0.06 Q 245.38 -0.32 245.35 -0.95 Z M 260.47 -4.53 Q 260.4 -5.72 260.4 -6.88 Q 260.4 -8.03 260.55 -9.02 L 260.55 -9.02 Q 260.64 -9.14 260.88 -9.2 Q 261.12 -9.26 261.37 -9.26 Q 261.63 -9.26 261.84 -9.23 Q 262.05 -9.19 262.09 -9.17 L 262.09 -9.17 Q 262 -8.35 262 -7.39 L 262 -7.39 Q 262 -7.27 262 -7.14 L 262 -7.14 Q 262.02 -6.04 262.04 -4.85 L 262.04 -4.85 Q 262.05 -4.26 262.04 -3.66 L 262.04 -3.66 Q 262.04 -3.07 262.04 -2.47 L 262.04 -2.47 Q 262.02 -1.28 261.87 -0.18 L 261.87 -0.18 Q 261.86 -0.07 261.69 0.04 Q 261.53 0.16 261.34 0.21 Q 261.14 0.26 260.98 0.21 Q 260.81 0.17 260.79 -0.04 L 260.79 -0.04 Q 260.76 -1.03 260.65 -2.18 Q 260.55 -3.34 260.47 -4.53 Z M 269.95 -0.14 L 269.95 -0.14 Q 270.01 -0.71 270.04 -1.52 Q 270.06 -2.34 270.08 -3.24 Q 270.1 -4.15 270.11 -5.06 Q 270.11 -5.97 270.13 -6.71 Q 270.14 -7.45 270.16 -7.95 Q 270.18 -8.45 270.22 -8.53 L 270.22 -8.53 L 270.2 -8.52 Q 270.35 -8.87 270.77 -8.97 L 270.77 -8.97 Q 271.05 -9.04 271.38 -9.04 L 271.38 -9.04 Q 271.54 -9.04 271.72 -9.02 L 271.72 -9.02 Q 272.26 -8.97 272.85 -8.78 Q 273.44 -8.6 273.93 -8.4 L 273.93 -8.4 Q 274.23 -8.27 274.51 -8.1 Q 274.79 -7.93 274.99 -7.69 L 274.99 -7.69 Q 275.21 -7.46 275.31 -7.15 L 275.31 -7.15 Q 275.39 -6.91 275.39 -6.6 L 275.39 -6.6 Q 275.39 -6.52 275.38 -6.45 L 275.38 -6.45 Q 275.34 -5.96 275.1 -5.51 Q 274.86 -5.06 274.44 -4.79 L 274.44 -4.79 Q 274.3 -4.72 274.17 -4.64 Q 274.03 -4.57 273.88 -4.51 Q 273.72 -4.45 273.53 -4.38 Q 273.34 -4.31 273.07 -4.24 L 273.07 -4.24 L 274.12 -1.99 Q 274.34 -1.57 274.48 -1.33 Q 274.62 -1.09 274.7 -0.95 Q 274.77 -0.81 274.81 -0.73 Q 274.86 -0.65 274.88 -0.6 L 274.88 -0.6 Q 274.96 -0.4 274.92 -0.24 Q 274.89 -0.08 274.79 0.03 Q 274.69 0.13 274.53 0.16 Q 274.37 0.19 274.18 0.13 L 274.18 0.13 L 271.63 -3.7 L 271.54 -3.79 Q 271.53 -3.8 271.52 -3.8 Q 271.51 -3.8 271.5 -3.81 L 271.5 -3.81 L 271.38 0 Q 271.22 0.05 271.09 0.08 Q 270.95 0.11 270.79 0.1 Q 270.63 0.09 270.43 0.04 Q 270.23 -0.01 269.95 -0.14 Z M 271.36 -7.78 L 271.36 -7.78 Q 271.45 -7.14 271.46 -6.49 Q 271.46 -5.84 271.5 -5.16 L 271.5 -5.16 Q 271.95 -5.24 272.37 -5.29 Q 272.79 -5.34 273.1 -5.47 Q 273.41 -5.6 273.6 -5.86 L 273.6 -5.86 Q 273.78 -6.11 273.78 -6.58 L 273.78 -6.58 Q 273.78 -6.61 273.78 -6.64 L 273.78 -6.64 Q 273.76 -7.05 273.45 -7.29 Q 273.13 -7.52 272.73 -7.64 Q 272.32 -7.76 271.93 -7.78 L 271.93 -7.78 Q 271.69 -7.79 271.53 -7.79 L 271.53 -7.79 Q 271.43 -7.79 271.36 -7.78 Z M 282.94 -5.37 L 282.94 -5.37 Q 283.05 -7.66 283.34 -8.93 L 283.34 -8.93 L 288.44 -9.08 Q 288.74 -9.05 288.9 -8.82 Q 289.07 -8.59 289.1 -8.33 L 289.1 -8.33 Q 289.11 -8.26 289.11 -8.2 L 289.11 -8.2 Q 289.11 -8.01 289.03 -7.85 L 289.03 -7.85 Q 288.93 -7.64 288.7 -7.64 L 288.7 -7.64 Q 288.18 -7.59 287.7 -7.57 L 287.7 -7.57 Q 287.54 -7.57 287.37 -7.57 L 287.37 -7.57 Q 287.05 -7.57 286.72 -7.58 L 286.72 -7.58 Q 286.22 -7.6 285.69 -7.63 Q 285.15 -7.66 284.53 -7.68 L 284.53 -7.68 Q 284.58 -7.58 284.57 -7.29 Q 284.56 -7 284.53 -6.63 L 284.53 -6.63 Q 284.51 -6.26 284.48 -5.87 L 284.48 -5.87 Q 284.47 -5.67 284.47 -5.5 Q 284.47 -5.32 284.48 -5.16 L 284.48 -5.16 Q 284.91 -5.14 285.27 -5.14 L 285.27 -5.14 Q 285.63 -5.14 285.96 -5.14 L 285.96 -5.14 Q 286.12 -5.14 286.28 -5.14 Q 286.45 -5.14 286.61 -5.14 L 286.61 -5.14 Q 286.94 -5.14 287.32 -5.1 L 287.32 -5.1 Q 287.61 -5.05 287.71 -4.83 L 287.71 -4.83 Q 287.79 -4.67 287.79 -4.51 L 287.79 -4.51 Q 287.79 -4.45 287.78 -4.39 L 287.78 -4.39 Q 287.74 -4.16 287.6 -3.99 Q 287.46 -3.81 287.26 -3.85 L 287.26 -3.85 Q 286.96 -3.81 286.6 -3.81 L 286.6 -3.81 Q 286.56 -3.81 286.51 -3.81 L 286.51 -3.81 Q 286.1 -3.81 285.68 -3.82 L 285.68 -3.82 Q 285.41 -3.83 285.16 -3.83 L 285.16 -3.83 Q 285.03 -3.83 284.92 -3.83 L 284.92 -3.83 Q 284.57 -3.82 284.4 -3.76 L 284.4 -3.76 Q 284.35 -3.27 284.33 -2.73 Q 284.31 -2.18 284.25 -1.57 L 284.25 -1.57 Q 284.25 -1.53 284.23 -1.45 L 284.23 -1.45 Q 284.25 -1.45 284.26 -1.44 L 284.26 -1.44 Q 284.8 -1.39 285.24 -1.37 Q 285.67 -1.35 286.07 -1.35 Q 286.48 -1.35 286.88 -1.37 Q 287.27 -1.39 287.74 -1.42 L 287.74 -1.42 Q 288.05 -1.45 288.25 -1.45 L 288.25 -1.45 Q 288.43 -1.45 288.54 -1.43 L 288.54 -1.43 Q 288.77 -1.39 288.85 -1.26 Q 288.92 -1.13 288.92 -0.91 Q 288.93 -0.7 289.04 -0.4 L 289.04 -0.4 Q 289.04 -0.13 288.79 -0.08 L 288.79 -0.08 Q 288.39 0 287.93 0.01 Q 287.48 0.01 287.08 0.03 L 287.08 0.03 Q 286.64 0.03 286.11 0.01 Q 285.59 0 285.04 -0.01 L 285.04 -0.01 Q 284.5 -0.03 283.98 -0.04 L 283.98 -0.04 Q 283.71 -0.04 283.47 -0.04 Q 283.23 -0.04 283.01 -0.04 L 283.01 -0.04 Q 282.9 -1.94 282.9 -3.55 L 282.9 -3.55 Q 282.89 -4.51 282.94 -5.37 Z M 297.25 -3.31 Q 297.13 -3.47 297.13 -3.65 Q 297.14 -3.82 297.28 -3.97 Q 297.42 -4.12 297.69 -4.13 L 297.69 -4.13 Q 298.06 -3.93 298.47 -3.89 Q 298.88 -3.86 299.25 -3.9 Q 299.62 -3.93 299.94 -3.97 Q 300.25 -4.01 300.45 -3.97 Q 300.65 -3.93 300.71 -3.75 Q 300.77 -3.57 300.62 -3.15 L 300.62 -3.15 Q 300.45 -3.1 300.29 -3.1 Q 300.12 -3.11 299.95 -3.14 Q 299.79 -3.17 299.61 -3.22 Q 299.44 -3.26 299.27 -3.27 L 299.27 -3.27 Q 298.86 -3.31 298.46 -3.25 Q 298.06 -3.2 297.64 -3.12 L 297.64 -3.12 Q 297.37 -3.15 297.25 -3.31 Z M 308.36 -8.81 L 308.36 -8.81 Q 308.32 -8.92 308.42 -9.01 Q 308.52 -9.09 308.69 -9.14 Q 308.86 -9.18 309.08 -9.19 L 309.08 -9.19 Q 309.17 -9.2 309.25 -9.2 L 309.25 -9.2 Q 309.37 -9.2 309.48 -9.19 L 309.48 -9.19 Q 309.67 -9.17 309.81 -9.1 Q 309.96 -9.04 310 -8.95 L 310 -8.95 Q 310.31 -8.3 310.48 -7.48 Q 310.66 -6.67 310.82 -5.82 Q 310.97 -4.97 311.14 -4.14 Q 311.31 -3.31 311.6 -2.65 L 311.6 -2.65 Q 311.97 -3.04 312.19 -3.36 Q 312.4 -3.69 312.55 -3.94 Q 312.71 -4.19 312.86 -4.38 Q 313 -4.57 313.26 -4.73 L 313.26 -4.73 Q 313.35 -4.8 313.46 -4.78 Q 313.58 -4.77 313.79 -4.5 Q 314.01 -4.23 314.35 -3.61 Q 314.7 -3 315.23 -1.89 L 315.23 -1.89 Q 315.23 -1.96 315.34 -2.07 Q 315.44 -2.17 315.58 -2.4 Q 315.72 -2.63 315.88 -3.05 Q 316.04 -3.47 316.17 -4.18 Q 316.3 -4.89 316.36 -5.95 L 316.36 -5.95 Q 316.4 -6.55 316.4 -7.3 L 316.4 -7.3 Q 316.4 -7.87 316.38 -8.53 L 316.38 -8.53 Q 316.42 -8.76 316.63 -8.88 Q 316.84 -8.99 317.08 -9 L 317.08 -9 Q 317.1 -9 317.11 -9 L 317.11 -9 Q 317.34 -8.99 317.55 -8.89 L 317.55 -8.89 Q 317.77 -8.78 317.83 -8.55 L 317.83 -8.55 Q 317.79 -8.17 317.73 -7.46 Q 317.66 -6.74 317.55 -5.88 Q 317.45 -5.02 317.3 -4.09 Q 317.15 -3.16 316.95 -2.34 Q 316.75 -1.52 316.51 -0.89 Q 316.26 -0.26 315.97 -0.01 L 315.97 -0.01 Q 315.74 0.12 315.58 0.12 L 315.58 0.12 Q 315.52 0.11 315.47 0.1 L 315.47 0.1 Q 315.27 0.04 315.15 -0.06 L 315.15 -0.06 L 313.64 -3.22 L 311.84 0.01 Q 311.71 0.1 311.46 0.09 Q 311.2 0.08 311.08 -0.04 L 311.08 -0.04 Q 310.26 -2.16 309.56 -4.33 Q 308.86 -6.5 308.36 -8.81 Z M 325.72 -4.53 Q 325.65 -5.72 325.65 -6.88 Q 325.65 -8.03 325.8 -9.02 L 325.8 -9.02 Q 325.89 -9.14 326.13 -9.2 Q 326.37 -9.26 326.62 -9.26 Q 326.88 -9.26 327.09 -9.23 Q 327.3 -9.19 327.34 -9.17 L 327.34 -9.17 Q 327.25 -8.35 327.25 -7.39 L 327.25 -7.39 Q 327.25 -7.27 327.25 -7.14 L 327.25 -7.14 Q 327.26 -6.04 327.28 -4.85 L 327.28 -4.85 Q 327.3 -4.26 327.29 -3.66 L 327.29 -3.66 Q 327.29 -3.07 327.28 -2.47 L 327.28 -2.47 Q 327.26 -1.28 327.12 -0.18 L 327.12 -0.18 Q 327.11 -0.07 326.94 0.04 Q 326.78 0.16 326.58 0.21 Q 326.39 0.26 326.22 0.21 Q 326.05 0.17 326.04 -0.04 L 326.04 -0.04 Q 326 -1.03 325.9 -2.18 Q 325.8 -3.34 325.72 -4.53 Z M 335.19 -0.14 L 335.19 -0.14 Q 335.26 -0.71 335.29 -1.52 Q 335.31 -2.34 335.33 -3.24 Q 335.35 -4.15 335.36 -5.06 Q 335.36 -5.97 335.38 -6.71 Q 335.39 -7.45 335.41 -7.95 Q 335.43 -8.45 335.46 -8.53 L 335.46 -8.53 L 335.45 -8.52 Q 335.6 -8.87 336.02 -8.97 L 336.02 -8.97 Q 336.3 -9.04 336.63 -9.04 L 336.63 -9.04 Q 336.79 -9.04 336.97 -9.02 L 336.97 -9.02 Q 337.51 -8.97 338.1 -8.78 Q 338.69 -8.6 339.18 -8.4 L 339.18 -8.4 Q 339.48 -8.27 339.76 -8.1 Q 340.04 -7.93 340.24 -7.69 L 340.24 -7.69 Q 340.46 -7.46 340.56 -7.15 L 340.56 -7.15 Q 340.64 -6.91 340.64 -6.6 L 340.64 -6.6 Q 340.64 -6.52 340.63 -6.45 L 340.63 -6.45 Q 340.59 -5.96 340.35 -5.51 Q 340.1 -5.06 339.69 -4.79 L 339.69 -4.79 Q 339.55 -4.72 339.41 -4.64 Q 339.28 -4.57 339.13 -4.51 Q 338.97 -4.45 338.78 -4.38 Q 338.59 -4.31 338.32 -4.24 L 338.32 -4.24 L 339.37 -1.99 Q 339.59 -1.57 339.73 -1.33 Q 339.87 -1.09 339.95 -0.95 Q 340.02 -0.81 340.06 -0.73 Q 340.1 -0.65 340.13 -0.6 L 340.13 -0.6 Q 340.2 -0.4 340.17 -0.24 Q 340.14 -0.08 340.04 0.03 Q 339.93 0.13 339.77 0.16 Q 339.61 0.19 339.43 0.13 L 339.43 0.13 L 336.88 -3.7 L 336.79 -3.79 Q 336.77 -3.8 336.77 -3.8 Q 336.76 -3.8 336.75 -3.81 L 336.75 -3.81 L 336.63 0 Q 336.47 0.05 336.34 0.08 Q 336.2 0.11 336.04 0.1 Q 335.88 0.09 335.68 0.04 Q 335.48 -0.01 335.19 -0.14 Z M 336.61 -7.78 L 336.61 -7.78 Q 336.7 -7.14 336.71 -6.49 Q 336.71 -5.84 336.75 -5.16 L 336.75 -5.16 Q 337.2 -5.24 337.62 -5.29 Q 338.03 -5.34 338.35 -5.47 Q 338.66 -5.6 338.85 -5.86 L 338.85 -5.86 Q 339.03 -6.11 339.03 -6.58 L 339.03 -6.58 Q 339.03 -6.61 339.03 -6.64 L 339.03 -6.64 Q 339.01 -7.05 338.7 -7.29 Q 338.38 -7.52 337.98 -7.64 Q 337.57 -7.76 337.18 -7.78 L 337.18 -7.78 Q 336.94 -7.79 336.78 -7.79 L 336.78 -7.79 Q 336.68 -7.79 336.61 -7.78 Z M 348.18 -5.37 L 348.18 -5.37 Q 348.3 -7.66 348.59 -8.93 L 348.59 -8.93 L 353.69 -9.08 Q 353.98 -9.05 354.15 -8.82 Q 354.32 -8.59 354.35 -8.33 L 354.35 -8.33 Q 354.35 -8.26 354.35 -8.2 L 354.35 -8.2 Q 354.35 -8.01 354.28 -7.85 L 354.28 -7.85 Q 354.18 -7.64 353.95 -7.64 L 353.95 -7.64 Q 353.43 -7.59 352.95 -7.57 L 352.95 -7.57 Q 352.79 -7.57 352.62 -7.57 L 352.62 -7.57 Q 352.3 -7.57 351.97 -7.58 L 351.97 -7.58 Q 351.47 -7.6 350.94 -7.63 Q 350.4 -7.66 349.78 -7.68 L 349.78 -7.68 Q 349.83 -7.58 349.82 -7.29 Q 349.81 -7 349.78 -6.63 L 349.78 -6.63 Q 349.76 -6.26 349.73 -5.87 L 349.73 -5.87 Q 349.72 -5.67 349.72 -5.5 Q 349.72 -5.32 349.73 -5.16 L 349.73 -5.16 Q 350.16 -5.14 350.52 -5.14 L 350.52 -5.14 Q 350.88 -5.14 351.21 -5.14 L 351.21 -5.14 Q 351.37 -5.14 351.53 -5.14 Q 351.7 -5.14 351.86 -5.14 L 351.86 -5.14 Q 352.18 -5.14 352.57 -5.1 L 352.57 -5.1 Q 352.86 -5.05 352.96 -4.83 L 352.96 -4.83 Q 353.04 -4.67 353.04 -4.51 L 353.04 -4.51 Q 353.04 -4.45 353.02 -4.39 L 353.02 -4.39 Q 352.99 -4.16 352.85 -3.99 Q 352.71 -3.81 352.5 -3.85 L 352.5 -3.85 Q 352.21 -3.81 351.85 -3.81 L 351.85 -3.81 Q 351.81 -3.81 351.76 -3.81 L 351.76 -3.81 Q 351.34 -3.81 350.93 -3.82 L 350.93 -3.82 Q 350.65 -3.83 350.41 -3.83 L 350.41 -3.83 Q 350.28 -3.83 350.17 -3.83 L 350.17 -3.83 Q 349.81 -3.82 349.64 -3.76 L 349.64 -3.76 Q 349.59 -3.27 349.58 -2.73 Q 349.56 -2.18 349.5 -1.57 L 349.5 -1.57 Q 349.5 -1.53 349.48 -1.45 L 349.48 -1.45 Q 349.5 -1.45 349.51 -1.44 L 349.51 -1.44 Q 350.05 -1.39 350.49 -1.37 Q 350.92 -1.35 351.32 -1.35 Q 351.73 -1.35 352.12 -1.37 Q 352.52 -1.39 352.99 -1.42 L 352.99 -1.42 Q 353.29 -1.45 353.5 -1.45 L 353.5 -1.45 Q 353.68 -1.45 353.79 -1.43 L 353.79 -1.43 Q 354.02 -1.39 354.09 -1.26 Q 354.17 -1.13 354.17 -0.91 Q 354.18 -0.7 354.29 -0.4 L 354.29 -0.4 Q 354.29 -0.13 354.03 -0.08 L 354.03 -0.08 Q 353.64 0 353.18 0.01 Q 352.72 0.01 352.33 0.03 L 352.33 0.03 Q 351.89 0.03 351.36 0.01 Q 350.84 0 350.29 -0.01 L 350.29 -0.01 Q 349.75 -0.03 349.22 -0.04 L 349.22 -0.04 Q 348.96 -0.04 348.72 -0.04 Q 348.48 -0.04 348.26 -0.04 L 348.26 -0.04 Q 348.15 -1.94 348.15 -3.55 L 348.15 -3.55 Q 348.14 -4.51 348.18 -5.37 Z M 362.12 -7.69 L 362.12 -7.69 Q 362.11 -7.83 362.11 -7.94 L 362.11 -7.94 Q 362.11 -8.34 362.2 -8.6 L 362.2 -8.6 Q 362.32 -8.94 362.7 -8.94 L 362.7 -8.94 Q 362.72 -8.94 362.73 -8.94 L 362.73 -8.94 Q 363.14 -8.99 363.54 -8.99 L 363.54 -8.99 Q 363.99 -8.99 364.43 -8.92 L 364.43 -8.92 Q 365.28 -8.8 366.03 -8.43 Q 366.79 -8.06 367.4 -7.46 Q 368.01 -6.86 368.4 -6.03 L 368.4 -6.03 Q 368.58 -5.63 368.67 -5.13 L 368.67 -5.13 Q 368.74 -4.72 368.74 -4.3 L 368.74 -4.3 Q 368.74 -4.2 368.73 -4.11 L 368.73 -4.11 Q 368.71 -3.58 368.59 -3.05 Q 368.47 -2.53 368.25 -2.07 L 368.25 -2.07 Q 368.04 -1.63 367.71 -1.3 Q 367.37 -0.98 366.97 -0.73 Q 366.57 -0.49 366.12 -0.3 Q 365.68 -0.11 365.27 0.03 L 365.27 0.03 Q 364.72 0.21 364.23 0.21 L 364.23 0.21 Q 364.01 0.21 363.79 0.17 L 363.79 0.17 Q 363.73 0.19 363.63 0.22 L 363.63 0.22 Q 363.61 0.22 363.6 0.23 Q 363.59 0.24 363.56 0.26 L 363.56 0.26 Q 363.17 0.22 363 -0.04 L 363 -0.04 L 362.77 -0.17 Q 362.31 -0.5 362.21 -0.98 L 362.21 -0.98 Q 362.17 -1.17 362.17 -1.37 L 362.17 -1.37 Q 362.17 -1.67 362.26 -1.99 L 362.26 -1.99 Q 362.52 -2.59 362.55 -3.35 L 362.55 -3.35 Q 362.55 -3.52 362.55 -3.69 L 362.55 -3.69 Q 362.55 -4.28 362.49 -4.88 L 362.49 -4.88 Q 362.4 -5.65 362.28 -6.39 Q 362.16 -7.13 362.12 -7.69 Z M 363.51 -7.61 L 363.51 -7.61 Q 363.52 -6.9 363.62 -6.15 Q 363.71 -5.39 363.79 -4.6 Q 363.87 -3.8 363.88 -2.97 L 363.88 -2.97 Q 363.88 -2.94 363.88 -2.92 L 363.88 -2.92 Q 363.88 -2.12 363.71 -1.3 L 363.71 -1.3 Q 364.1 -1.2 364.45 -1.2 L 364.45 -1.2 Q 364.79 -1.2 365.07 -1.29 L 365.07 -1.29 Q 365.68 -1.47 366.11 -1.88 Q 366.54 -2.29 366.79 -2.87 L 366.79 -2.87 Q 367.04 -3.45 367.07 -4.09 L 367.07 -4.09 Q 367.08 -4.18 367.08 -4.28 L 367.08 -4.28 Q 367.08 -4.82 366.92 -5.35 L 366.92 -5.35 Q 366.73 -5.98 366.29 -6.48 Q 365.86 -6.99 365.17 -7.3 Q 364.48 -7.61 363.51 -7.61 Z M 376.65 -0.58 Q 376.6 -0.7 376.6 -0.8 Q 376.6 -0.91 376.65 -1.01 Q 376.7 -1.12 376.78 -1.18 L 376.78 -1.18 Q 376.8 -1.42 377 -1.58 Q 377.21 -1.73 377.5 -1.63 L 377.5 -1.63 Q 377.77 -1.76 378.09 -1.56 L 378.09 -1.56 Q 378.21 -1.37 378.21 -1.2 Q 378.21 -1.03 378.14 -0.88 L 378.14 -0.88 Q 378.13 -0.86 378.12 -0.85 Q 378.12 -0.85 378.11 -0.82 L 378.11 -0.82 Q 378.09 -0.77 378.09 -0.73 Q 378.09 -0.7 378.07 -0.65 L 378.07 -0.65 Q 378.18 -0.46 378.17 -0.27 Q 378.16 -0.08 378.05 0.05 Q 377.94 0.18 377.77 0.21 Q 377.6 0.24 377.4 0.1 L 377.4 0.1 Q 377.2 -0.04 377.17 -0.27 L 377.17 -0.27 Q 376.99 -0.24 376.83 -0.38 L 376.83 -0.38 Q 376.7 -0.47 376.65 -0.58 Z" stroke-linecap="round" />
</g>
</g>
</g>
</svg>